<svg width="19" height="19" viewBox="0 0 19 19" fill="none" xmlns="http://www.w3.org/2000/svg">
<g clip-path="url(#clip0_1301_58)">
<path d="M9.81201 4.21634C10.8475 4.21634 11.687 3.37687 11.687 2.34134C11.687 1.30581 10.8475 0.466339 9.81201 0.466339C8.77648 0.466339 7.93701 1.30581 7.93701 2.34134C7.93701 3.37687 8.77648 4.21634 9.81201 4.21634Z" fill="#5A676F" fill-opacity="0.2"/>
<path d="M9.76318 11.3531C10.7987 11.3531 11.6382 10.5136 11.6382 9.47806C11.6382 8.44252 10.7987 7.60306 9.76318 7.60306C8.72765 7.60306 7.88818 8.44252 7.88818 9.47806C7.88818 10.5136 8.72765 11.3531 9.76318 11.3531Z" fill="#5A676F" fill-opacity="0.2"/>
<path d="M9.76318 18.48C10.7987 18.48 11.6382 17.6405 11.6382 16.605C11.6382 15.5695 10.7987 14.73 9.76318 14.73C8.72765 14.73 7.88818 15.5695 7.88818 16.605C7.88818 17.6405 8.72765 18.48 9.76318 18.48Z" fill="#5A676F" fill-opacity="0.2"/>
</g>
<defs>
<clipPath id="clip0_1301_58">
<rect width="18" height="18" fill="white" transform="matrix(0 -1 1 0 0.763184 18.48)"/>
</clipPath>
</defs>
</svg>
