<svg width="25" height="24" viewBox="0 0 25 24" fill="none" xmlns="http://www.w3.org/2000/svg">
<path d="M12.502 6V4M12.502 6C11.9715 6 11.4628 6.21071 11.0877 6.58579C10.7127 6.96086 10.502 7.46957 10.502 8C10.502 8.53043 10.7127 9.03914 11.0877 9.41421C11.4628 9.78929 11.9715 10 12.502 10M12.502 6C13.0324 6 13.5411 6.21071 13.9162 6.58579C14.2912 6.96086 14.502 7.46957 14.502 8C14.502 8.53043 14.2912 9.03914 13.9162 9.41421C13.5411 9.78929 13.0324 10 12.502 10M6.50195 18C7.03239 18 7.54109 17.7893 7.91617 17.4142C8.29124 17.0391 8.50195 16.5304 8.50195 16C8.50195 15.4696 8.29124 14.9609 7.91617 14.5858C7.54109 14.2107 7.03239 14 6.50195 14M6.50195 18C5.97152 18 5.46281 17.7893 5.08774 17.4142C4.71267 17.0391 4.50195 16.5304 4.50195 16C4.50195 15.4696 4.71267 14.9609 5.08774 14.5858C5.46281 14.2107 5.97152 14 6.50195 14M6.50195 18V20M6.50195 14V4M12.502 10V20M18.502 18C19.0324 18 19.5411 17.7893 19.9162 17.4142C20.2912 17.0391 20.502 16.5304 20.502 16C20.502 15.4696 20.2912 14.9609 19.9162 14.5858C19.5411 14.2107 19.0324 14 18.502 14M18.502 18C17.9715 18 17.4628 17.7893 17.0877 17.4142C16.7127 17.0391 16.502 16.5304 16.502 16C16.502 15.4696 16.7127 14.9609 17.0877 14.5858C17.4628 14.2107 17.9715 14 18.502 14M18.502 18V20M18.502 14V4" stroke="#5A676F" stroke-width="1.5" stroke-linecap="round" stroke-linejoin="round"/>
</svg>
