<svg width="38" height="38" viewBox="0 0 38 38" fill="none" xmlns="http://www.w3.org/2000/svg">
<rect x="1" y="1" width="36" height="36" rx="6" fill="#028478" fill-opacity="0.1"/>
<path d="M24.2244 27.0568C23.15 27.2077 21.749 27.2077 19.8702 27.2077H18.1285C14.4339 27.2077 12.5866 27.2077 11.4388 26.0599C10.291 24.9122 10.291 23.0648 10.291 19.3702V17.6285C10.291 13.9339 10.291 12.0866 11.4388 10.9388C12.5866 9.79102 14.4339 9.79102 18.1285 9.79102H19.8702C23.5648 9.79102 25.4122 9.79102 26.5599 10.9388C27.7077 12.0866 27.7077 13.9339 27.7077 17.6285V19.3702C27.7077 20.4777 27.7077 21.4192 27.6768 22.2257C27.6519 22.8719 27.6396 23.1952 27.3948 23.3159C27.1501 23.4366 26.8764 23.2429 26.3288 22.8555L25.0952 21.9827" stroke="#028478" stroke-width="1.5" stroke-linecap="round" stroke-linejoin="round"/>
<path d="M21.7005 18.8612C21.5385 19.4357 20.7728 19.8417 19.2416 20.6537C17.7613 21.4385 17.0212 21.8311 16.4247 21.6733C16.1781 21.608 15.9535 21.4842 15.7723 21.3135C15.334 20.9008 15.334 20.1003 15.334 18.4993C15.334 16.8984 15.334 16.0978 15.7723 15.6851C15.9535 15.5145 16.1781 15.3906 16.4247 15.3254C17.0212 15.1677 17.7613 15.5601 19.2416 16.345C20.7728 17.157 21.5385 17.563 21.7005 18.1374C21.7673 18.3746 21.7673 18.6241 21.7005 18.8612Z" stroke="#028478" stroke-width="1.5" stroke-linecap="round" stroke-linejoin="round"/>
<rect x="1" y="1" width="36" height="36" rx="6" stroke="#028478" stroke-opacity="0.1" stroke-width="2"/>
</svg>
