<svg width="38" height="39" viewBox="0 0 38 39" fill="none" xmlns="http://www.w3.org/2000/svg">
<rect x="1" y="1.5" width="36" height="36" rx="6" fill="#E65527" fill-opacity="0.1"/>
<path d="M24.2708 18.1257C26.4224 18.1257 28.1667 16.3814 28.1667 14.2298C28.1667 12.0782 26.4224 10.334 24.2708 10.334C22.1192 10.334 20.375 12.0782 20.375 14.2298C20.375 16.3814 22.1192 18.1257 24.2708 18.1257Z" stroke="#E65527" stroke-width="1.5"/>
<path d="M13.7298 18.1257C15.8814 18.1257 17.6257 16.3814 17.6257 14.2298C17.6257 12.0782 15.8814 10.334 13.7298 10.334C11.5782 10.334 9.83398 12.0782 9.83398 14.2298C9.83398 16.3814 11.5782 18.1257 13.7298 18.1257Z" stroke="#E65527" stroke-width="1.5"/>
<path d="M24.2708 28.6667C26.4224 28.6667 28.1667 26.9224 28.1667 24.7708C28.1667 22.6192 26.4224 20.875 24.2708 20.875C22.1192 20.875 20.375 22.6192 20.375 24.7708C20.375 26.9224 22.1192 28.6667 24.2708 28.6667Z" stroke="#E65527" stroke-width="1.5"/>
<path d="M13.7298 28.6667C15.8814 28.6667 17.6257 26.9224 17.6257 24.7708C17.6257 22.6192 15.8814 20.875 13.7298 20.875C11.5782 20.875 9.83398 22.6192 9.83398 24.7708C9.83398 26.9224 11.5782 28.6667 13.7298 28.6667Z" stroke="#E65527" stroke-width="1.5"/>
<rect x="1" y="1.5" width="36" height="36" rx="6" stroke="#E65527" stroke-opacity="0.1" stroke-width="2"/>
</svg>
