<svg width="38" height="38" viewBox="0 0 38 38" fill="none" xmlns="http://www.w3.org/2000/svg">
<rect x="1" y="1" width="36" height="36" rx="6" fill="#028478" fill-opacity="0.1"/>
<path d="M11.666 23.9831V16.3992C11.666 13.0686 11.666 11.4033 12.74 10.3687C13.8139 9.33398 15.5424 9.33398 18.9993 9.33398C22.4563 9.33398 24.1848 9.33398 25.2587 10.3687C26.3327 11.4033 26.3327 13.0686 26.3327 16.3992V23.9831C26.3327 26.0968 26.3327 27.1536 25.6243 27.5319C24.2523 28.2644 21.6789 25.8204 20.4568 25.0845C19.7481 24.6577 19.3937 24.4443 18.9993 24.4443C18.605 24.4443 18.2506 24.6577 17.5418 25.0845C16.3197 25.8204 13.7464 28.2644 12.3745 27.5319C11.666 27.1536 11.666 26.0968 11.666 23.9831Z" stroke="#028478" stroke-width="1.5"/>
<path d="M11.666 13.916H26.3327" stroke="#028478" stroke-width="1.5"/>
<rect x="1" y="1" width="36" height="36" rx="6" stroke="#028478" stroke-opacity="0.1" stroke-width="2"/>
</svg>
