<svg width="21" height="4" viewBox="0 0 21 4" fill="none" xmlns="http://www.w3.org/2000/svg">
<path fill-rule="evenodd" clip-rule="evenodd" d="M4.12226 2C4.12226 3.10457 3.21504 4 2.09592 4C0.976803 4 0.0695801 3.10457 0.0695801 2C0.0695801 0.895431 0.976803 0 2.09592 0C3.21504 0 4.12226 0.895431 4.12226 2ZM12.2275 2C12.2275 3.10457 11.3203 4 10.2012 4C9.08208 4 8.17485 3.10457 8.17485 2C8.17485 0.895431 9.08208 0 10.2012 0C11.3203 0 12.2275 0.895431 12.2275 2ZM18.3066 4C19.4257 4 20.3329 3.10457 20.3329 2C20.3329 0.895431 19.4257 0 18.3066 0C17.1874 0 16.2802 0.895431 16.2802 2C16.2802 3.10457 17.1874 4 18.3066 4Z" fill="#2A2A2D"/>
</svg>
