<svg width="28" height="20" viewBox="0 0 28 20" fill="none" xmlns="http://www.w3.org/2000/svg">
<path fill-rule="evenodd" clip-rule="evenodd" d="M13.9586 0.0464766C12.7997 0.258144 11.9667 0.940427 11.6153 1.96587C11.5129 2.26442 11.4914 2.43396 11.4944 2.91933C11.4989 3.63672 11.5905 4.01089 11.9412 4.74405C12.4712 5.85219 13.1806 6.69376 15.1047 8.49696C15.8457 9.19142 16.7095 10.0046 17.0244 10.304L17.5967 10.8483L19.397 9.08425C22.4505 6.09225 23.1536 5.30445 23.5501 4.43106C24.0734 3.27832 23.8798 2.02866 23.0342 1.1003C22.4174 0.42312 21.6413 0.0522192 20.7465 0.0069769C20.1073 -0.0253313 19.7414 0.0500724 19.1898 0.327805C18.8379 0.504964 18.6496 0.65341 18.1733 1.12929L17.5888 1.71325L17.042 1.18929C16.4428 0.615091 15.9896 0.315461 15.4792 0.156013C15.093 0.0353137 14.3231 -0.0200719 13.9586 0.0464766ZM0.686829 13.0231V17.9605H3.4344H6.18197V13.0231V8.08558H3.4344H0.686829V13.0231ZM7.30234 13.0145V17.1442L9.58309 18.3249C11.9414 19.5456 12.4702 19.7716 13.3159 19.9199C14.2326 20.0807 15.3783 19.9952 16.2618 19.7001C16.6956 19.5552 19.9198 17.9628 21.1469 17.2875C22.932 16.3051 25.7528 14.5186 27.0582 13.5437C27.9642 12.8671 28.2379 11.9461 27.7861 11.0935C27.5053 10.5637 27.051 10.2434 26.4158 10.1275C25.7655 10.0089 25.5997 10.0673 23.1916 11.2625L21.0202 12.3402L20.7995 12.856C20.6782 13.1398 20.4837 13.4988 20.3674 13.654C19.8525 14.3408 18.9664 14.8039 17.8864 14.9505C17.1873 15.0455 15.6178 15.1171 15.39 15.0644C15.0655 14.9895 14.9048 14.7933 14.9048 14.4721C14.9048 14.253 14.9309 14.18 15.0528 14.0574L15.2008 13.9086L16.52 13.9059C17.9785 13.903 18.1467 13.8765 18.8528 13.5386C19.3156 13.3172 19.6875 12.9906 19.8417 12.6703C20.0702 12.1954 19.9028 11.6268 19.4423 11.3133C19.0656 11.057 18.9493 11.0422 17.2993 11.0397L15.7458 11.0373L15.0319 10.6048C14.0315 9.9988 12.95 9.47537 12.0761 9.17435L11.3303 8.91744L9.31633 8.90107L7.30234 8.8847V13.0145Z" fill="white"/>
</svg>
