<svg width="19" height="20" viewBox="0 0 19 20" fill="none" xmlns="http://www.w3.org/2000/svg">
<path fill-rule="evenodd" clip-rule="evenodd" d="M0.427599 2.83507C0.891781 2.24163 2.92382 0.25 9.28982 0.25C15.6558 0.25 17.6879 2.24163 18.152 2.83507C18.2343 2.94029 18.2731 3.06614 18.2834 3.19932C18.4295 5.08723 19.2432 19.75 9.28982 19.75C-0.663544 19.75 0.150171 5.08723 0.296192 3.19932C0.306494 3.06614 0.345298 2.94029 0.427599 2.83507ZM9.28974 3V17C9.28974 17 11.8227 17 13.849 13.5C15.4683 10.703 15.4701 6.3094 15.4054 4.65729C15.3898 4.25655 15.1217 3.91888 14.7363 3.80794C14.1527 3.63994 13.241 3.39998 12.3292 3.25C10.8095 3 9.28974 3 9.28974 3Z" fill="url(#paint0_linear_29_1088)"/>
<defs>
<linearGradient id="paint0_linear_29_1088" x1="3.16349" y1="3.5" x2="17.1671" y2="18.9639" gradientUnits="userSpaceOnUse">
<stop stop-color="#885BF6"/>
<stop offset="1" stop-color="#204EB4"/>
</linearGradient>
</defs>
</svg>
