<svg width="15" height="18" viewBox="0 0 15 18" fill="none" xmlns="http://www.w3.org/2000/svg">
<path fill-rule="evenodd" clip-rule="evenodd" d="M3.52954 0C1.87269 0 0.529541 1.34315 0.529541 3V15C0.529541 16.6569 1.87268 18 3.52954 18H11.6876C13.3444 18 14.6876 16.6569 14.6876 15V3C14.6876 1.34315 13.3444 0 11.6876 0H3.52954ZM2.52954 3C2.52954 2.44772 2.97726 2 3.52954 2H11.6876C12.2399 2 12.6876 2.44771 12.6876 3V15C12.6876 15.5523 12.2399 16 11.6876 16H3.52954C2.97726 16 2.52954 15.5523 2.52954 15V3ZM5.07564 4C4.79949 4 4.57564 4.22386 4.57564 4.5C4.57564 4.77614 4.79949 5 5.07564 5H10.1415C10.4176 5 10.6415 4.77614 10.6415 4.5C10.6415 4.22386 10.4176 4 10.1415 4H5.07564ZM4.57564 7.5C4.57564 7.22386 4.79949 7 5.07564 7H10.1415C10.4176 7 10.6415 7.22386 10.6415 7.5C10.6415 7.77614 10.4176 8 10.1415 8H5.07564C4.79949 8 4.57564 7.77614 4.57564 7.5ZM5.07564 10C4.79949 10 4.57564 10.2239 4.57564 10.5C4.57564 10.7761 4.79949 11 5.07564 11H8.11515C8.39129 11 8.61514 10.7761 8.61514 10.5C8.61514 10.2239 8.39129 10 8.11515 10H5.07564Z" fill="#737373"/>
</svg>
