<svg width="21" height="20" viewBox="0 0 21 20" fill="none" xmlns="http://www.w3.org/2000/svg">
<path d="M4.01984 14.9833V8.08896C4.01984 5.06115 4.01984 3.54725 4.99614 2.60663C5.97246 1.66602 7.5438 1.66602 10.6865 1.66602C13.8292 1.66602 15.4006 1.66602 16.3768 2.60663C17.3532 3.54725 17.3532 5.06115 17.3532 8.08896V14.9833C17.3532 16.9049 17.3532 17.8657 16.7092 18.2096C15.4619 18.8755 13.1225 16.6537 12.0115 15.9847C11.3672 15.5967 11.045 15.4027 10.6865 15.4027C10.328 15.4027 10.0058 15.5967 9.3615 15.9847C8.2505 16.6537 5.91106 18.8755 4.66388 18.2096C4.01984 17.8657 4.01984 16.9049 4.01984 14.9833Z" stroke="#5A676F" stroke-width="1.5" stroke-linecap="round" stroke-linejoin="round"/>
<path d="M4.01984 5.83398H17.3532" stroke="#5A676F" stroke-width="1.5"/>
</svg>
