<svg width="18" height="18" viewBox="0 0 18 18" fill="none" xmlns="http://www.w3.org/2000/svg">
<g clip-path="url(#clip0_29_910)">
<path d="M9.04883 3.73633C10.0844 3.73633 10.9238 2.89686 10.9238 1.86133C10.9238 0.825794 10.0844 -0.0136719 9.04883 -0.0136719C8.01329 -0.0136719 7.17383 0.825794 7.17383 1.86133C7.17383 2.89686 8.01329 3.73633 9.04883 3.73633Z" fill="#5A676F" fill-opacity="0.2"/>
<path d="M9 10.873C10.0355 10.873 10.875 10.0336 10.875 8.99805C10.875 7.96251 10.0355 7.12305 9 7.12305C7.96447 7.12305 7.125 7.96251 7.125 8.99805C7.125 10.0336 7.96447 10.873 9 10.873Z" fill="#5A676F" fill-opacity="0.2"/>
<path d="M9 18C10.0355 18 10.875 17.1605 10.875 16.125C10.875 15.0895 10.0355 14.25 9 14.25C7.96447 14.25 7.125 15.0895 7.125 16.125C7.125 17.1605 7.96447 18 9 18Z" fill="#5A676F" fill-opacity="0.2"/>
</g>
<defs>
<clipPath id="clip0_29_910">
<rect width="18" height="18" fill="white" transform="matrix(0 -1 1 0 0 18)"/>
</clipPath>
</defs>
</svg>
