<svg width="31" height="31" viewBox="0 0 31 31" fill="none" xmlns="http://www.w3.org/2000/svg">
<g clip-path="url(#clip0_1301_53)">
<path d="M26.3482 3.60505H5.09823C3.37651 3.60223 1.97846 4.99571 1.97565 6.71749C1.97542 6.85759 1.98462 6.99751 2.00325 7.13632C2.04755 7.47862 2.36096 7.7202 2.70333 7.67591C2.78671 7.66512 2.86704 7.63764 2.93952 7.59505C3.21526 7.43462 3.52926 7.35171 3.84825 7.35505H8.29827C9.10135 7.35727 9.81485 7.86803 10.0758 8.62753L10.182 8.97001C10.6121 10.2431 11.8045 11.1014 13.1482 11.105H27.5982C27.926 11.1053 28.2479 11.1915 28.532 11.355C28.628 11.411 28.7371 11.4403 28.8482 11.44C29.1934 11.44 29.4732 11.1602 29.4732 10.815V6.73003C29.4732 5.00415 28.0741 3.60505 26.3482 3.60505Z" fill="#FFA000"/>
<path d="M29.1644 10.2775C28.689 10.0004 28.1485 9.85465 27.5982 9.855H13.1482C12.3451 9.85278 11.6316 9.34201 11.3707 8.58252L11.2645 8.24004C10.8344 6.96697 9.64194 6.10869 8.29821 6.10506H3.84819C3.31117 6.09985 2.78272 6.2393 2.31819 6.50883C1.33305 7.06014 0.722913 8.10106 0.723206 9.23004V24.23C0.723206 25.9559 2.12231 27.355 3.84819 27.355H27.5982C29.324 27.355 30.7231 25.9559 30.7231 24.23V12.98C30.727 11.8645 30.1319 10.8328 29.1644 10.2775Z" fill="#FFC107"/>
</g>
<defs>
<clipPath id="clip0_1301_53">
<rect width="30" height="30" fill="white" transform="translate(0.723206 0.480011)"/>
</clipPath>
</defs>
</svg>
