<svg width="24" height="24" viewBox="0 0 24 24" fill="none" xmlns="http://www.w3.org/2000/svg">
<g clip-path="url(#clip0_29_903)">
<path d="M20.5193 2.82694H4.10425C2.77427 2.82477 1.69431 3.90119 1.69214 5.23121C1.69196 5.33944 1.69907 5.44752 1.71346 5.55475C1.74768 5.81917 1.98979 6.00578 2.25425 5.97156C2.31866 5.96324 2.38071 5.94201 2.4367 5.9091C2.64971 5.78518 2.89227 5.72113 3.13867 5.72371H6.57619C7.19655 5.72543 7.74771 6.11998 7.94926 6.70667L8.03132 6.97122C8.36354 7.95463 9.28467 8.61763 10.3227 8.62044H21.4849C21.7381 8.62066 21.9867 8.68724 22.2062 8.81357C22.2803 8.8568 22.3646 8.87943 22.4505 8.87924C22.7171 8.87924 22.9333 8.66307 22.9333 8.39643V5.2409C22.9333 3.90771 21.8525 2.82694 20.5193 2.82694Z" fill="#FFA000"/>
<path d="M22.6947 7.98125C22.3274 7.7672 21.9099 7.65459 21.4848 7.65486H10.3226C9.7022 7.65314 9.15105 7.25859 8.94949 6.67191L8.86743 6.40735C8.53521 5.42394 7.61408 4.76094 6.57609 4.75814H3.13857C2.72374 4.75411 2.31553 4.86183 1.95669 5.07004C1.1957 5.49591 0.724383 6.29999 0.724609 7.1721V18.7592C0.724609 20.0924 1.80538 21.1731 3.13857 21.1731H21.4848C22.818 21.1731 23.8987 20.0924 23.8987 18.7592V10.0689C23.9017 9.20717 23.442 8.41019 22.6947 7.98125Z" fill="#FFC107"/>
</g>
<defs>
<clipPath id="clip0_29_903">
<rect width="23.1742" height="23.1742" fill="white" transform="translate(0.724731 0.412933)"/>
</clipPath>
</defs>
</svg>
