<svg width="64" height="32" viewBox="0 0 64 32" fill="none" xmlns="http://www.w3.org/2000/svg">
<g clip-path="url(#clip0_29_680)">
<path d="M20.1596 9.49585L20.0284 10.4166H17.9506C17.4506 16.2813 17.0786 21.0574 16.6578 23.2664C15.8956 27.2636 12.1881 29.4984 9.76876 29.4984C8.95317 29.4984 7.87537 29.0518 7.87537 28.0776C7.87537 27.5258 8.34948 27.105 8.90134 27.105C9.76876 27.105 10.4258 27.7087 10.874 28.4191C12.1881 27.6828 12.3726 27.0776 12.8985 24.4494C13.1348 23.2664 13.9016 14.676 14.2964 10.4166H12.6653L12.7964 9.49585H14.426L14.6623 8.05066C15.5556 2.6083 19.5787 2.00308 20.998 2.00308C21.7602 2.00308 23.2588 2.372 23.2588 3.34309C23.2588 4.02605 22.7069 4.31723 22.0758 4.31723C21.1032 4.31723 20.6565 3.71201 20.1839 2.92234C18.5009 3.65866 18.2113 7.68174 18.0543 9.49585H20.1596Z" fill="url(#paint0_linear_29_680)"/>
<path d="M25.6416 27.7864C22.9227 30.0199 19.5118 31.2384 15.9932 31.2333C7.58119 31.2333 0.762235 24.4128 0.762235 16.0023C0.762235 7.58873 7.58272 0.768247 15.9947 0.768247C18.6764 0.767657 21.3106 1.47551 23.6308 2.82018C25.9509 4.16484 27.8747 6.09857 29.2073 8.42566C29.5564 8.50341 29.8979 8.59793 30.2303 8.71226C28.889 6.09111 26.8501 3.89117 24.3382 2.35495C21.8264 0.818732 18.9391 0.00588561 15.9947 0.00601198C7.16044 0.00601198 0 7.16645 0 16.0008C0 24.8335 7.16044 31.994 15.9947 31.994C20.1626 31.994 23.9586 30.3979 26.8048 27.7849L25.6416 27.7864Z" fill="#634313"/>
<path d="M32.1114 13.0966C32.1114 10.284 30.4025 8.9943 27.509 8.9943C22.803 8.9943 19.9629 12.7552 19.9629 17.0923C19.9629 18.9948 20.7465 20.1976 22.149 20.7785H27.1188C30.2775 19.69 32.1114 16.5816 32.1114 13.0966ZM23.7771 16.4108C23.7771 14.7019 24.1186 9.99587 26.5638 9.99587C28.2194 9.99587 28.2987 12.6774 28.2987 13.807C28.2987 15.4901 27.9572 20.1961 25.512 20.1961C23.8549 20.1961 23.7771 17.5146 23.7771 16.4108ZM45.2569 13.0966C45.2569 10.284 43.548 8.9943 40.6545 8.9943C35.9485 8.9943 33.1084 12.7552 33.1084 17.0923C33.1084 18.9948 33.8935 20.1976 35.2945 20.7785H40.2643C43.4245 19.69 45.2569 16.5816 45.2569 13.0966ZM36.9226 16.4108C36.9226 14.7019 37.2641 9.99587 39.7094 9.99587C41.3649 9.99587 41.4442 12.6774 41.4442 13.807C41.4442 15.4901 41.1027 20.1961 38.6575 20.1961C37.0004 20.1961 36.9226 17.5146 36.9226 16.4108ZM53.9327 16.7523L53.986 16.8057C53.8549 18.2783 53.8016 19.0406 53.8016 19.5924C53.8016 19.879 53.7939 20.4095 53.9449 20.7815H56.8779C57.7969 20.5073 58.6934 20.1628 59.5595 19.751L59.3232 19.0146C58.5076 19.3043 57.9039 19.5147 57.7195 19.5147C57.378 19.5147 57.378 19.068 57.378 18.725C57.378 17.4627 59.1921 4.97274 59.1921 2.55493C59.1921 2.1601 59.1128 2.1601 58.8765 2.1601C57.0624 2.21345 55.0364 2.63421 53.1704 3.29125L53.4067 4.05349C54.3275 3.76536 54.6949 3.68609 54.9312 3.68609C55.2468 3.68609 55.2468 3.9483 55.2468 4.23795C55.2468 5.10537 55.2208 6.31428 54.8519 9.18028H53.9052C49.3562 9.18028 46.0954 13.4671 46.0954 17.5954C46.0954 18.7707 46.5085 20.1184 47.446 20.7815H50.4188C51.9935 19.9827 53.2177 18.1808 53.9327 16.7523ZM54.3001 10.1788C54.4312 10.1788 54.5897 10.2063 54.7208 10.2581C54.3778 12.7033 54.169 14.2019 53.5378 15.8315C53.1963 16.7264 52.1704 18.6975 51.0133 18.6975C50.1718 18.6975 50.0407 17.3042 50.0407 16.7264C50.0407 14.3863 51.4081 10.1788 54.3001 10.1788Z" fill="url(#paint1_linear_29_680)"/>
<path d="M56.8781 20.78H18.0345V27.044H59.8919V20.78H56.8781Z" fill="#634313"/>
<path d="M20.556 22.2206H21.5484L22.8762 24.2009H22.8854V22.2206H23.7055V25.9525H22.9052L21.3838 23.8396H21.3746V25.9525H20.5544V22.2206H20.556ZM26.1233 22.2206H28.9314V22.9905H27.1889V23.6673H28.3049V24.4372H27.1889V25.1537H28.9863V25.9525H26.1233V22.2206ZM32.0124 22.9615H30.9864V22.2206H34.1055V22.9615H33.0795V25.9525H32.0124V22.9615ZM35.9928 22.2206H37.0492L37.563 24.2161H37.5721L38.1011 22.2206H38.9899L39.499 24.2161H39.5082L40.0311 22.2206H40.8695L39.8771 25.9525H38.9655L38.438 23.9631H38.4273L37.8999 25.9525H36.9867L35.9928 22.2206ZM44.5969 26.0211C43.4855 26.0211 42.8148 25.2772 42.8148 24.0866C42.8148 22.8959 43.4855 22.152 44.5969 22.152C45.7082 22.152 46.379 22.8959 46.379 24.0866C46.379 25.2772 45.7067 26.0211 44.5969 26.0211ZM43.9398 24.0866C43.9398 25.0897 44.231 25.2817 44.5969 25.2817C44.9566 25.2817 45.2539 25.0897 45.2539 24.0866C45.2539 23.1383 45.0115 22.8914 44.5969 22.8914C44.167 22.8929 43.9398 23.1841 43.9398 24.0866ZM48.6184 22.2206H50.4051C51.6491 22.2206 51.8915 22.8136 51.8915 23.2969C51.8915 23.7618 51.6003 24.0713 51.1856 24.2344L51.8823 25.9525H50.6978L50.1688 24.4219H49.6856V25.9525H48.6199L48.6184 22.2206ZM49.684 23.7115H50.2374C50.5438 23.7115 50.7664 23.5789 50.7664 23.3365C50.7664 23.0987 50.6124 22.9325 50.2831 22.9325H49.6856L49.684 23.7115ZM54.2346 22.2206H55.3002V23.7161H55.3093L56.4008 22.2206H57.4177L56.4999 23.4554L57.6601 25.954H56.5198L55.785 24.3594L55.3017 25.0058V25.954H54.2361L54.2346 22.2206Z" fill="white"/>
<path d="M61.8706 25.3946V25.5912H61.3157V27.0349H61.0931V25.5912H60.5382V25.3946H61.8706ZM62.3874 25.3946L62.8569 26.7818H62.8615L63.328 25.3946H63.6436V27.0349H63.4286V25.9861L63.4332 25.6598L63.4286 25.6568L62.9667 27.0349H62.7472L62.2853 25.6598L62.2807 25.6568L62.2853 26.0592V27.0364H62.0703V25.3961H62.3874V25.3946Z" fill="#634313"/>
</g>
<defs>
<linearGradient id="paint0_linear_29_680" x1="15.5671" y1="2.00308" x2="15.5671" y2="29.4984" gradientUnits="userSpaceOnUse">
<stop stop-color="#FFA800"/>
<stop offset="1" stop-color="#EE5601"/>
</linearGradient>
<linearGradient id="paint1_linear_29_680" x1="39.7612" y1="2.1601" x2="39.7612" y2="20.7815" gradientUnits="userSpaceOnUse">
<stop stop-color="#FFA800"/>
<stop offset="1" stop-color="#FE7008"/>
</linearGradient>
<clipPath id="clip0_29_680">
<rect width="63.6436" height="32" fill="white"/>
</clipPath>
</defs>
</svg>
