<svg width="24" height="18" viewBox="0 0 24 18" fill="none" xmlns="http://www.w3.org/2000/svg">
<path d="M19.7304 16.1504L15.7316 12.2017M17.4281 8.01364C17.4281 8.78361 17.2745 9.54605 16.9761 10.2574C16.6777 10.9688 16.2404 11.6151 15.689 12.1596C15.1377 12.704 14.4831 13.1359 13.7627 13.4306C13.0424 13.7252 12.2703 13.8769 11.4905 13.8769C10.7108 13.8769 9.93871 13.7252 9.21833 13.4306C8.49795 13.1359 7.8434 12.704 7.29205 12.1596C6.7407 11.6151 6.30334 10.9688 6.00495 10.2574C5.70656 9.54605 5.55298 8.78361 5.55298 8.01364C5.55298 6.45861 6.17854 4.96727 7.29205 3.8677C8.40556 2.76812 9.9158 2.15039 11.4905 2.15039C13.0653 2.15039 14.5755 2.76812 15.689 3.8677C16.8025 4.96727 17.4281 6.45861 17.4281 8.01364Z" stroke="#E65527" stroke-width="1.5" stroke-linecap="round" stroke-linejoin="round"/>
</svg>
