<svg width="38" height="38" viewBox="0 0 38 38" fill="none" xmlns="http://www.w3.org/2000/svg">
<rect x="1" y="1" width="36" height="36" rx="6" fill="#E65527"/>
<path d="M11.5673 26.4334C10.292 25.158 10.292 23.1054 10.292 19.0003C10.292 14.8952 10.292 12.8426 11.5673 11.5673C12.8426 10.292 14.8952 10.292 19.0003 10.292C23.1054 10.292 25.158 10.292 26.4334 11.5673C27.7087 12.8426 27.7087 14.8952 27.7087 19.0003C27.7087 23.1054 27.7087 25.158 26.4334 26.4334C25.158 27.7087 23.1054 27.7087 19.0003 27.7087C14.8952 27.7087 12.8426 27.7087 11.5673 26.4334Z" stroke="white" stroke-width="1.5" stroke-linecap="round" stroke-linejoin="round"/>
<path d="M10.292 16.25H27.7087" stroke="white" stroke-width="1.5"/>
<path d="M22.667 27.7083V16.25" stroke="white" stroke-width="1.5"/>
<path d="M15.333 27.7083V16.25" stroke="white" stroke-width="1.5"/>
<rect x="1" y="1" width="36" height="36" rx="6" stroke="#E65527" stroke-opacity="0.1" stroke-width="2"/>
</svg>
