<svg width="36" height="36" viewBox="0 0 36 36" fill="none" xmlns="http://www.w3.org/2000/svg">
<rect width="36" height="36" rx="6" fill="#5A676F" fill-opacity="0.05"/>
<path d="M23.2708 16.6257C25.4224 16.6257 27.1667 14.8814 27.1667 12.7298C27.1667 10.5782 25.4224 8.83398 23.2708 8.83398C21.1192 8.83398 19.375 10.5782 19.375 12.7298C19.375 14.8814 21.1192 16.6257 23.2708 16.6257Z" stroke="#5A676F" stroke-width="1.5" stroke-linecap="round" stroke-linejoin="round"/>
<path d="M12.7298 16.6257C14.8814 16.6257 16.6257 14.8814 16.6257 12.7298C16.6257 10.5782 14.8814 8.83398 12.7298 8.83398C10.5782 8.83398 8.83398 10.5782 8.83398 12.7298C8.83398 14.8814 10.5782 16.6257 12.7298 16.6257Z" stroke="#5A676F" stroke-width="1.5" stroke-linecap="round" stroke-linejoin="round"/>
<path d="M23.2708 27.1667C25.4224 27.1667 27.1667 25.4224 27.1667 23.2708C27.1667 21.1192 25.4224 19.375 23.2708 19.375C21.1192 19.375 19.375 21.1192 19.375 23.2708C19.375 25.4224 21.1192 27.1667 23.2708 27.1667Z" stroke="#5A676F" stroke-width="1.5" stroke-linecap="round" stroke-linejoin="round"/>
<path d="M12.7298 27.1667C14.8814 27.1667 16.6257 25.4224 16.6257 23.2708C16.6257 21.1192 14.8814 19.375 12.7298 19.375C10.5782 19.375 8.83398 21.1192 8.83398 23.2708C8.83398 25.4224 10.5782 27.1667 12.7298 27.1667Z" stroke="#5A676F" stroke-width="1.5" stroke-linecap="round" stroke-linejoin="round"/>
</svg>
