<svg width="38" height="38" viewBox="0 0 38 38" fill="none" xmlns="http://www.w3.org/2000/svg">
<rect x="1" y="1" width="36" height="36" rx="6" fill="#028478" fill-opacity="0.1"/>
<path d="M13.9583 27.6667C15.7302 27.6667 17.1667 26.2302 17.1667 24.4583C17.1667 22.6864 15.7302 21.25 13.9583 21.25C12.1864 21.25 10.75 22.6864 10.75 24.4583C10.75 26.2302 12.1864 27.6667 13.9583 27.6667Z" stroke="#028478" stroke-width="1.5" stroke-linecap="round" stroke-linejoin="round"/>
<path d="M24.5 24.916C26.0188 24.916 27.25 23.6848 27.25 22.166C27.25 20.6472 26.0188 19.416 24.5 19.416C22.9812 19.416 21.75 20.6472 21.75 22.166C21.75 23.6848 22.9812 24.916 24.5 24.916Z" stroke="#028478" stroke-width="1.5" stroke-linecap="round" stroke-linejoin="round"/>
<path d="M17.166 24.4576V13.9159C17.166 13.0694 17.166 12.6462 17.4076 12.3832C17.649 12.1202 18.0987 12.0819 18.9981 12.0051C22.6862 11.6905 25.3326 10.4876 26.6584 9.70823C26.9293 9.54893 27.0647 9.46929 27.157 9.52209C27.2493 9.57489 27.2493 9.72814 27.2493 10.0346V22.1659" stroke="#028478" stroke-width="1.5" stroke-linecap="round" stroke-linejoin="round"/>
<path d="M17.166 16.666C22.5438 16.666 26.129 14.5271 27.2493 13.916" stroke="#028478" stroke-width="1.5" stroke-linecap="round" stroke-linejoin="round"/>
<rect x="1" y="1" width="36" height="36" rx="6" stroke="#028478" stroke-opacity="0.1" stroke-width="2"/>
</svg>
