<svg width="36" height="37" viewBox="0 0 36 37" fill="none" xmlns="http://www.w3.org/2000/svg">
<rect y="0.5" width="36" height="36" rx="6" fill="#101010" fill-opacity="0.05"/>
<path d="M20.25 22.584C19.5171 23.1545 18.5544 23.5007 17.5 23.5007C16.4457 23.5007 15.4829 23.1545 14.75 22.584" stroke="#101010" stroke-width="1.5" stroke-linecap="round"/>
<path d="M8.65609 19.113C8.33249 17.0072 8.17069 15.9543 8.56881 15.0209C8.96692 14.0875 9.85018 13.4489 11.6167 12.1716L12.9366 11.2173C15.1341 9.62843 16.2328 8.83398 17.5007 8.83398C18.7685 8.83398 19.8672 9.62843 22.0647 11.2173L23.3846 12.1716C25.1512 13.4489 26.0344 14.0875 26.4325 15.0209C26.8306 15.9543 26.6688 17.0072 26.3452 19.113L26.0693 20.9087C25.6105 23.8938 25.3811 25.3864 24.3106 26.2769C23.24 27.1673 21.6749 27.1673 18.5446 27.1673H16.4568C13.3265 27.1673 11.7613 27.1673 10.6907 26.2769C9.62015 25.3864 9.39078 23.8938 8.93205 20.9087L8.65609 19.113Z" stroke="#101010" stroke-width="1.5" stroke-linejoin="round"/>
</svg>
