<svg width="29" height="28" viewBox="0 0 29 28" fill="none" xmlns="http://www.w3.org/2000/svg">
<g opacity="0.5">
<path d="M16.7794 4.01825L18.8325 8.1584C19.1125 8.73472 19.859 9.28752 20.489 9.39337L24.2102 10.0167C26.59 10.4167 27.15 12.1574 25.4351 13.8746L22.5421 16.7915C22.0521 17.2855 21.7839 18.2382 21.9355 18.9205L22.7638 22.5313C23.417 25.3894 21.9121 26.495 19.4041 25.0012L15.9162 22.9194C15.2863 22.5431 14.2481 22.5431 13.6064 22.9194L10.1185 25.0012C7.62208 26.495 6.10559 25.3776 6.75886 22.5313L7.5871 18.9205C7.73874 18.2382 7.47044 17.2855 6.98049 16.7915L4.08748 13.8746C2.38433 12.1574 2.93261 10.4167 5.31234 10.0167L9.0336 9.39337C9.65186 9.28752 10.3984 8.73472 10.6784 8.1584L12.7315 4.01825C13.8514 1.77175 15.6712 1.77175 16.7794 4.01825Z" stroke="#E55527" stroke-width="1.5" stroke-linecap="round" stroke-linejoin="round"/>
</g>
</svg>
