<svg width="24" height="24" viewBox="0 0 24 24" fill="none" xmlns="http://www.w3.org/2000/svg">
<path d="M13.7282 3.44424L15.488 6.99294C15.728 7.48693 16.3679 7.96076 16.9079 8.05149L20.0975 8.58581C22.1373 8.92859 22.6173 10.4207 21.1474 11.8926L18.6677 14.3928C18.2477 14.8162 18.0178 15.6328 18.1477 16.2176L18.8577 19.3126C19.4176 21.7624 18.1277 22.7101 15.978 21.4297L12.9883 19.6453C12.4484 19.3227 11.5585 19.3227 11.0085 19.6453L8.01888 21.4297C5.87911 22.7101 4.57926 21.7523 5.1392 19.3126L5.84912 16.2176C5.9791 15.6328 5.74913 14.8162 5.32917 14.3928L2.84945 11.8926C1.38961 10.4207 1.85956 8.92859 3.89933 8.58581L7.08898 8.05149C7.61892 7.96076 8.25885 7.48693 8.49882 6.99294L10.2586 3.44424C11.2185 1.51867 12.7783 1.51867 13.7282 3.44424Z" fill="#E55527" stroke="#E55527" stroke-width="1.5" stroke-linecap="round" stroke-linejoin="round"/>
</svg>
